<svg width="16" height="17" viewBox="0 0 16 17" fill="none" xmlns="http://www.w3.org/2000/svg">
<g id="Frame 1410113163">
<path id="Vector" d="M7.5625 12.8926C7.44792 12.778 7.38792 12.6322 7.3825 12.4551C7.37709 12.278 7.43188 12.1322 7.54688 12.0176L10.6094 8.95508H3.625C3.44792 8.95508 3.29938 8.89508 3.17938 8.77508C3.05938 8.65508 2.99959 8.50675 3 8.33008C3 8.153 3.06 8.00445 3.18 7.88445C3.3 7.76445 3.44834 7.70466 3.625 7.70508H10.6094L7.54688 4.64258C7.43229 4.52799 7.3775 4.38216 7.3825 4.20508C7.3875 4.02799 7.4475 3.88216 7.5625 3.76758C7.67709 3.65299 7.82292 3.5957 8 3.5957C8.17709 3.5957 8.32292 3.65299 8.4375 3.76758L12.5625 7.89258C12.625 7.94466 12.6694 8.00987 12.6956 8.0882C12.7219 8.16654 12.7348 8.24716 12.7344 8.33008C12.7344 8.41341 12.7215 8.49154 12.6956 8.56445C12.6698 8.63737 12.6254 8.70508 12.5625 8.76758L8.4375 12.8926C8.32292 13.0072 8.17709 13.0645 8 13.0645C7.82292 13.0645 7.67709 13.0072 7.5625 12.8926Z" fill="white"/>
</g>
</svg>
