<svg width="24" height="25" viewBox="0 0 24 25" fill="none" xmlns="http://www.w3.org/2000/svg">
<g id="mdi:eye-off">
<path id="Vector" d="M11.83 9.88933L15 13.0385V12.879C15 12.0861 14.6839 11.3257 14.1213 10.765C13.5587 10.2043 12.7956 9.88933 12 9.88933H11.83ZM7.53 10.6866L9.08 12.2313C9.03 12.4406 9 12.6498 9 12.879C9 13.672 9.31607 14.4324 9.87868 14.9931C10.4413 15.5538 11.2044 15.8688 12 15.8688C12.22 15.8688 12.44 15.8389 12.65 15.789L14.2 17.3337C13.53 17.6626 12.79 17.8619 12 17.8619C10.6739 17.8619 9.40215 17.3369 8.46447 16.4025C7.52678 15.468 7 14.2006 7 12.879C7 12.0918 7.2 11.3543 7.53 10.6866ZM2 5.17556L4.28 7.44774L4.73 7.89619C3.08 9.19174 1.78 10.8859 1 12.879C2.73 17.254 7 20.3533 12 20.3533C13.55 20.3533 15.03 20.0544 16.38 19.5162L16.81 19.9348L19.73 22.8447L21 21.5791L3.27 3.90991M12 7.89619C13.3261 7.89619 14.5979 8.42117 15.5355 9.35564C16.4732 10.2901 17 11.5575 17 12.879C17 13.5169 16.87 14.1347 16.64 14.6928L19.57 17.6128C21.07 16.367 22.27 14.7327 23 12.879C21.27 8.5041 17 5.40477 12 5.40477C10.6 5.40477 9.26 5.65391 8 6.10237L10.17 8.24499C10.74 8.02575 11.35 7.89619 12 7.89619Z" fill="#B4B4B4"/>
</g>
</svg>
