<svg width="22" height="21" viewBox="0 0 22 21" fill="none" xmlns="http://www.w3.org/2000/svg">
<g id="Frame" clip-path="url(#clip0_24_702)">
<g id="Group">
<path id="Vector" d="M9.26184 1.97638C8.59851 3.4163 8.39243 5.02492 8.67134 6.58555C8.95026 8.14618 9.70078 9.58384 10.8218 10.7049C11.9428 11.8259 13.3805 12.5764 14.9411 12.8553C16.5017 13.1342 18.1104 12.9281 19.5503 12.2648C18.6938 16.1217 15.2531 19.0049 11.1386 19.0049C6.37952 19.0049 2.52179 15.1471 2.52179 10.3881C2.52179 6.27357 5.40496 2.83289 9.26184 1.97638ZM16.45 2.02205L17.1703 2.20214V3.06382L16.45 3.24391C16.147 3.31968 15.8703 3.47635 15.6495 3.69717C15.4287 3.918 15.272 4.19468 15.1962 4.49765L15.0161 5.21801H14.1544L13.9744 4.49765C13.8986 4.19468 13.7419 3.918 13.5211 3.69717C13.3003 3.47635 13.0236 3.31968 12.7206 3.24391L12.0002 3.06382V2.20214L12.7206 2.02205C13.0234 1.94614 13.2999 1.78941 13.5206 1.56859C13.7413 1.34777 13.8978 1.07116 13.9735 0.768306L14.1544 0.0479431H15.0161L15.1962 0.768306C15.272 1.07127 15.4287 1.34795 15.6495 1.56878C15.8703 1.78961 16.147 1.94628 16.45 2.02205ZM20.7583 6.33044L21.4787 6.51053V7.37221L20.7583 7.5523C20.4554 7.62807 20.1787 7.78474 19.9579 8.00556C19.737 8.22639 19.5804 8.50307 19.5046 8.80604L19.3245 9.5264H18.4628L18.2827 8.80604C18.207 8.50307 18.0503 8.22639 17.8295 8.00556C17.6086 7.78474 17.332 7.62807 17.029 7.5523L16.3086 7.37221V6.51053L17.029 6.33044C17.332 6.25467 17.6086 6.098 17.8295 5.87717C18.0503 5.65634 18.207 5.37966 18.2827 5.0767L18.4628 4.35633H19.3245L19.5046 5.0767C19.5804 5.37966 19.737 5.65634 19.9579 5.87717C20.1787 6.098 20.4554 6.25467 20.7583 6.33044Z" fill="#EA93A4"/>
</g>
</g>
<defs>
<clipPath id="clip0_24_702">
<rect width="20.6803" height="20.6803" fill="white" transform="translate(0.795654 0.0477295)"/>
</clipPath>
</defs>
</svg>
