<svg width="21" height="24" viewBox="0 0 21 24" fill="none" xmlns="http://www.w3.org/2000/svg">
<g id="Group 10407">
<path id="Vector" d="M4.70148 16.7836C3.60566 16.7836 2.71437 16.3877 2.04603 15.6015C1.37768 14.8154 0.939061 13.6488 0.683645 11.9516C0.307549 9.45023 0.680737 7.34196 1.73439 6.01545C2.35475 5.23417 3.16898 4.78247 4.08887 4.70977C4.87644 4.64676 6.05368 4.96616 7.19069 6.84228C7.90266 8.01709 8.44403 9.5777 8.67618 11.1238C8.9568 12.9902 8.74791 14.3642 8.0374 15.3233C7.47325 16.0852 6.60571 16.5573 5.45852 16.7289C5.20786 16.7657 4.95483 16.784 4.70148 16.7836Z" fill="#9BCFCE"/>
<path id="Vector_2" d="M6.60055 23.312C5.96031 23.312 5.31135 23.107 4.72685 22.713C3.88341 22.1414 3.2996 21.2601 3.10227 20.2606C2.96415 19.5501 3.04702 18.9854 3.35527 18.5332C3.85592 17.799 4.75448 17.6337 5.70538 17.4583C5.80571 17.4399 5.90748 17.4214 6.01072 17.4016C6.22978 17.3599 6.4537 17.3046 6.67082 17.2508C7.48408 17.0502 8.32545 16.8423 9.01997 17.3357C9.48476 17.6652 9.74696 18.2255 9.82547 19.0475C9.91465 19.996 9.71109 20.9425 9.25212 21.7131C8.75825 22.5424 8.01769 23.0905 7.16808 23.2572C6.98111 23.2937 6.79105 23.3121 6.60055 23.312Z" fill="#9BCFCE"/>
<path id="Vector_3" d="M16.543 12.1305C16.2899 12.1297 16.0372 12.1102 15.787 12.0724C14.6403 11.9028 13.7727 11.4302 13.2086 10.6669C12.4981 9.70773 12.2877 8.3342 12.5698 6.46729C12.8019 4.91977 13.3419 3.36062 14.0504 2.19017C15.1816 0.320832 16.3603 -0.00340492 17.1523 0.053785C18.0692 0.120668 18.882 0.56607 19.5033 1.34298C20.5643 2.66949 20.9404 4.78407 20.5628 7.29654C20.3074 8.99285 19.8746 10.1536 19.2004 10.9465C18.5263 11.7394 17.6389 12.1305 16.543 12.1305Z" fill="#9BCFCE"/>
<path id="Vector_4" d="M14.6451 18.6597C14.4551 18.6597 14.2655 18.6413 14.079 18.6049C13.228 18.4382 12.4874 17.89 11.995 17.0608C11.536 16.2902 11.3325 15.3436 11.4216 14.3952C11.4992 13.5712 11.7609 13.0129 12.2271 12.6829C12.9217 12.19 13.763 12.3974 14.5763 12.5985C14.7934 12.6518 15.0173 12.7071 15.2364 12.7493L15.5412 12.806C16.4926 12.9809 17.3912 13.1452 17.8918 13.8804C18.2001 14.3326 18.283 14.8982 18.1448 15.6078C17.9477 16.6075 17.3638 17.489 16.5203 18.0606C15.9324 18.4552 15.2834 18.6597 14.6451 18.6597Z" fill="#9BCFCE"/>
</g>
</svg>
