<svg width="15" height="22" viewBox="0 0 15 22" fill="none" xmlns="http://www.w3.org/2000/svg">
<path id="Vector" d="M0.319824 9.051C0.319824 8.56352 0.545241 7.9448 0.978734 7.15734C1.41223 6.36987 1.84572 5.71366 2.24453 5.20743C2.34857 5.07619 2.48729 4.88869 2.64335 4.68245C2.79941 4.47621 2.90344 4.36372 2.92078 4.34497L3.56235 5.15118C4.04787 5.7324 4.48136 6.38862 4.88017 7.15734C5.27899 7.92605 5.48706 8.54477 5.48706 9.051C5.48706 9.81971 5.24431 10.4947 4.74146 11.0384C4.25594 11.5821 3.64905 11.8634 2.92078 11.8634C2.20985 11.8634 1.58562 11.5821 1.08277 11.0384C0.579919 10.4759 0.319824 9.81971 0.319824 9.051ZM5.72982 16.8319C5.72982 16.2882 5.86854 15.6694 6.14597 14.9382C6.42341 14.2258 6.7702 13.5508 7.18636 12.9508C7.98398 11.8071 8.72959 10.8509 9.45786 10.0822C9.52722 10.026 9.68328 9.87596 9.90869 9.63222L10.3422 10.0822C11.0184 10.7759 11.7814 11.7321 12.631 12.9321C13.0819 13.5695 13.4287 14.2445 13.7061 14.957C13.9835 15.6694 14.1222 16.2882 14.1222 16.8319C14.1222 18.1256 13.7234 19.1943 12.9085 20.0755C12.0935 20.9567 11.0878 21.3879 9.90869 21.3879C8.72959 21.3879 7.74123 20.9379 6.92626 20.0567C6.11129 19.1755 5.72982 18.0881 5.72982 16.8319ZM8.36546 3.89499C8.36546 3.08878 8.93767 2.02008 10.0994 0.707642L10.5329 1.23262C10.8624 1.6451 11.1572 2.09508 11.4172 2.62005C11.6773 3.12628 11.8161 3.55751 11.8161 3.89499C11.8161 4.41997 11.6427 4.83245 11.3132 5.18868C10.9838 5.52616 10.5849 5.71365 10.0994 5.71365C9.59658 5.71365 9.18042 5.54491 8.85097 5.18868C8.53886 4.83245 8.36546 4.40122 8.36546 3.89499Z" fill="#63AEFF"/>
</svg>
