<?xml version="1.0" encoding="UTF-8"?>
<svg xmlns="http://www.w3.org/2000/svg" viewBox="0 0 2891.34 1247.24" height="1247.24" width="2891.34" >
  <defs>
    <style>
      .cls-1, .cls-2, .cls-3, .cls-4, .cls-5, .cls-6, .cls-7, .cls-8, .cls-9, .cls-10, .cls-11, .cls-12, .cls-13, .cls-14, .cls-15 {
        stroke-width: 4px;
      }

      .cls-1, .cls-3, .cls-4, .cls-5, .cls-6, .cls-7, .cls-8, .cls-9, .cls-10, .cls-11, .cls-12, .cls-13, .cls-14, .cls-15, .cls-16 {
        fill: none;
      }

      .cls-1, .cls-17, .cls-11 {
        stroke: #006bb7;
      }

      .cls-1, .cls-4, .cls-5, .cls-6, .cls-7, .cls-8, .cls-9, .cls-10, .cls-11, .cls-12, .cls-13 {
        stroke-linecap: round;
      }

      .cls-2 {
        stroke: #e3000f;
      }

      .cls-2, .cls-17, .cls-18 {
        stroke-miterlimit: 10;
      }

      .cls-2, .cls-19 {
        fill: #fff;
      }

      .cls-3, .cls-12, .cls-18 {
        stroke: #000;
      }

      .cls-20 {
        fill: #11b2ff;
      }

      .cls-20, .cls-21, .cls-22, .cls-23, .cls-24, .cls-25, .cls-26, .cls-27, .cls-28, .cls-29, .cls-30, .cls-31, .cls-32, .cls-33, .cls-34, .cls-35, .cls-36, .cls-37, .cls-38, .cls-39, .cls-19, .cls-40, .cls-41, .cls-42, .cls-43 {
        stroke-width: 0px;
      }

      .cls-20, .cls-21, .cls-22, .cls-23, .cls-24, .cls-25, .cls-26, .cls-28 {
        isolation: isolate;
        opacity: .2;
      }

      .cls-21, .cls-36 {
        fill: #c9c4c2;
      }

      .cls-22 {
        fill: #58595b;
      }

      .cls-23 {
        fill: #3a1c1c;
      }

      .cls-24 {
        fill: #a36c62;
      }

      .cls-25 {
        fill: #a01e39;
      }

      .cls-17, .cls-44 {
        opacity: .2;
      }

      .cls-17, .cls-30, .cls-43 {
        fill: #006bb7;
      }

      .cls-26 {
        fill: #050505;
      }

      .cls-27 {
        opacity: .4;
      }

      .cls-27, .cls-37 {
        fill: #e3000f;
      }

      .cls-4 {
        stroke: #fd7c96;
      }

      .cls-4, .cls-5, .cls-6, .cls-7, .cls-8, .cls-9, .cls-10, .cls-11, .cls-12, .cls-13, .cls-14, .cls-15 {
        stroke-linejoin: round;
      }

      .cls-5 {
        stroke: #f4eff0;
      }

      .cls-6 {
        stroke: #fff;
      }

      .cls-7, .cls-14 {
        stroke: #202020;
      }

      .cls-8 {
        stroke: #19285f;
      }

      .cls-9 {
        stroke: #74041c;
      }

      .cls-10 {
        stroke: #050505;
      }

      .cls-13 {
        stroke: #1a1a1a;
      }

      .cls-18, .cls-42 {
        fill: #010508;
      }

      .cls-15 {
        stroke: #ededed;
      }

      .cls-30 {
        opacity: .3;
      }

      .cls-31 {
        fill: #f9b83e;
      }

      .cls-32 {
        fill: #4f051f;
      }

      .cls-33 {
        fill: #9c2b42;
      }

      .cls-34 {
        fill: #19285f;
      }

      .cls-35 {
        fill: #231f20;
      }

      .cls-38 {
        fill: #bf7550;
      }

      .cls-39 {
        fill: #cecece;
      }

      .cls-40 {
        fill: #e9a48a;
      }

      .cls-41 {
        fill: #ff325c;
      }

      .cls-16 {
        stroke: #e21e26;
        stroke-width: .71px;
      }
    </style>
  </defs>
  <g id="background">
    <rect class="cls-30" x="-57" y="-57" width="3005" height="1361"/>
    <path class="cls-19" d="m2084.54,399.97h345.06c24.75,0,44.99,20.09,44.99,44.99v345.06c0,24.75-20.09,44.99-44.99,44.99h-345.06c-24.75,0-44.99-20.09-44.99-44.99v-345.06c0-24.9,20.09-44.99,44.99-44.99Z"/>
  </g>
  <g id="Icone">
    <g class="cls-44">
      <path class="cls-43" d="m1637.49,452.1c24.24,117.64,26.6,242.95-42.57,305.03-68.56,61.47-209.26,59.11-320.4,118.22-109.94,59.11-192.12,179.11-304.44,220.5-111.73,41.98-254.78,4.15-360-83.35-104.64-88.09-172.03-225.22-201.58-374.2-30.15-148.37-22.47-307.39,70.94-383.06,92.81-76.26,271.33-70.34,401.97-91.03,130.64-20.7,213.99-68.58,313.31-81.58,99.3-13.02,213.99,8.28,293.2,74.47,80.39,66.21,125.92,176.75,149.56,294.99Z"/>
    </g>
  </g>
  <g id="commun_illustration_for_session" data-name="commun illustration for session">
    <line class="cls-16" x1="2665.32" y1="1247" x2="2891.55" y2="1247"/>
    <g>
      <path class="cls-19" d="m1633.17,69.5h-373.45v405.12h373.45V69.5Z"/>
      <path class="cls-36" d="m1504.67,361.63c-24.01-17.98-37.94-45.41-37.83-74.32v-70.1c0-37.79,35.31-34.37,50.56-17.3,18.26,20.38,54.88,66.35,47.31,139.75-4.44,43.69-34.22,40.97-60.04,21.96Z"/>
      <path class="cls-36" d="m1388.31,361.63c24.02-17.98,37.95-45.41,37.83-74.32v-70.1c0-37.79-35.3-34.37-50.56-17.3-18.24,20.38-54.87,66.35-47.31,139.75,4.44,43.69,34.22,40.97,60.04,21.96Z"/>
      <path class="cls-27" d="m1489.43,279.69l-28.82-21.85c-5.76-4.32-9.01-10.7-9.01-17.52v-102.88c0-2.5-2.16-4.54-4.81-4.54s-4.8,2.04-4.8,4.54v102.88c0,6.82-3.25,13.2-8.89,17.41l-30.02,21.85c-2.17,1.48-2.53,4.44-.84,6.38,1.69,2.04,4.69,2.38,6.73.8l30.02-21.86c12.73-10.47,2.87-10.47,15.6,0,1.2.46,30.74,24.58,31.83,22.88,4.31.1,6.59-5.58,3-8.08Z"/>
      <path class="cls-4" d="m1408.24,428.87h76.86"/>
    </g>
    <g>
      <path class="cls-12" d="m2511.38,922.56c-15.7,0-26.19,12.12-23.5,26.98l.8,4.27c.21,1.03,1.2,1.89,2.4,1.89h52.96c.9,0,1.7-.65,1.7-1.51v-.38l-.8-4.27c-2.79-14.96-17.79-26.98-33.57-26.98Z"/>
      <path class="cls-34" d="m2380.86,1109.12h181.98c3.9,0,7.2-2.65,7.79-6.25l25.79-138.46c1.4-7.68-4.8-14.77-13.09-14.77h-154.1c-10.89,0-20.19,7.39-22.09,17.51l-26.29,141.97Z"/>
      <path class="cls-43" d="m2644.89,1109.12h-188.68l-7.79-42.14-21.57-115.84c-.21-.85.5-1.51,1.4-1.51h168.19c10.89,0,20.19,7.39,22.09,17.51l26.38,141.97Z"/>
      <path class="cls-28" d="m2640.6,1086.02l-4.7-25.29h-188.67l1.19,6.26,192.18,19.03Z"/>
      <path class="cls-12" d="m2420.04,1008.74v98.49"/>
      <path class="cls-12" d="m2633.89,1060.83h-184.87"/>
      <path class="cls-8" d="m2530.26,989.32l6.5,35.05"/>
      <path class="cls-8" d="m2551.95,1006.85h-36.97"/>
    </g>
    <g>
      <path class="cls-39" d="m1155.91,713.52h-180.75v87.72h180.75v-87.72Z"/>
      <path class="cls-39" d="m1155.91,800.2h-180.75v87.72h180.75v-87.72Z"/>
      <path class="cls-22" d="m975.16,713.52h180.75v52.73l-180.75-45.61v-7.13Z"/>
      <path class="cls-22" d="m975.16,800.2h180.75v52.73l-180.75-45.61v-7.13Z"/>
      <path class="cls-35" d="m1043.98,800.2h43.23c0,11.25-9.69,20.43-21.56,20.43-11.98.1-21.67-9.08-21.67-20.43Z"/>
      <path class="cls-35" d="m1043.98,713.52h43.23c0,11.25-9.69,20.43-21.56,20.43s-21.67-9.08-21.67-20.43Z"/>
      <path class="cls-36" d="m1294.2,709.91h-138.94v398.33h138.94v-398.33Z"/>
      <path class="cls-23" d="m1155.26,709.91h133.39c2.72,0,4.69,2.58,3.81,5.06l-136.88,392.34c-.1.2-.32.09-.32,0v-397.4Z"/>
      <path class="cls-36" d="m691.62,709.91h-138.94v398.33h138.94v-398.33Z"/>
      <path class="cls-39" d="m1294.2,690.82h-741.53v22.7h741.53v-22.7Z"/>
      <path class="cls-12" d="m975.16,800.2l179.66-.21"/>
      <path class="cls-12" d="m552.67,713.52l741.53-.21"/>
    </g>
    <g>
      <path class="cls-40" d="m1882.38,309.05c4.13-14.72,12.2-28.84,12.73-41.98,1.04-25.51-14.5-52.97-59-59.84-23.8-3.72-39.33,12.17-47.61,21.98-10.35-4.91-25.36-7.16-26.29,7.56-1.04,16.67,15.94,20.5,15.94,20.5-1.96,10.49-1.13,13.53-3.1,23.73-.11.59-.62,1.07-1.15,1.18-2.38.48-8.49,2.16-8.9,5.4-.51,4.11,5.28,7.06,7.45,8.04.41.2.73.68.62,1.07-2.17,10.11-5.49,20.3-1.96,30.22,3.11,8.83,14.69,20.5,39.33,14.71l-1.87,10.69,31.47,3.73,32.49-4.61,3.11-13.73c27.74,1.95,28.46-22.76,6.73-28.64Z"/>
      <path class="cls-40" d="m1591.84,354.37c-6.72-6.38-25.87-20.6-32.08-19.62-5.28.79-3.11,7.85,1.04,12.74-17.29-6.37-28.15-6.86-43.48-6.86-11.37,0-7.24,9.81-7.24,9.81,0,0-10.35,2.95-5.17,11.77-5.07,7.65-8.18,14.42,34.57,23.93.41.1.41.68-.1.68-8.5.3-30.54.79-28.36,8.15,2.06,6.86,31.04,4.9,36.22,6.38,6.21,8.83,20.69,15.6,28.98,16.57l41.92-1.17-3.52-38.85v-.1c-4.24-4.99-17.59-18.53-22.78-23.43Z"/>
      <path class="cls-42" d="m1886.72,307.57c-.51-.2-.83-.68-.72-1.17,4.04-14.33,8.58-26.39,9.11-39.33,1.04-25.51-14.5-52.97-59-59.84-23.8-3.72-39.33,8.83-47.61,18.64-10.35-4.9-30.12-3.92-31.04,10.79-1.04,16.67,20.69,20.6,20.69,20.6,0,0,12.31,1.76,21.53-1.48.72-.2,1.45.1,1.66.79,4.45,13.44,7.86,21.98,14.39,31.09.41.59,1.24.69,1.76.3,5.28-3.54,29.29-18.44,40.37-2.27,11.79,17.17-8.9,32.08-14.29,35.51-.62.39-.72,1.28-.21,1.77,10.14,9.13,22.04,13.74,32.09,14.72,28.57,2.93,31.98-23.75,11.28-30.12Z"/>
      <path class="cls-10" d="m1810.24,341.61c4.55-1.86,14.69-5.99,18.63-7.85"/>
      <path class="cls-10" d="m1782.18,308.36c1.87.89,8.28,1.09,10.46-3.72"/>
      <path class="cls-42" d="m1791.61,282.96c1.77,0,3.21-1.36,3.21-3.04s-1.44-3.05-3.21-3.05-3.21,1.38-3.21,3.05,1.44,3.04,3.21,3.04Z"/>
      <path class="cls-10" d="m1841.6,295.61l-10.45,6.86"/>
      <path class="cls-43" d="m1788.5,225.87l100.51,70.62s22.76-34.62,14.39-53.95c-7.24-16.67-61.07-59.83-84.87-51.98-18.22,6.09-30.02,35.31-30.02,35.31Z"/>
      <path class="cls-36" d="m1816.44,953.77c-4.55-60.13-19.14-93.37-11.8-139.78,1.66-10.49,4.45-21.68,8.69-33.94l-57.85-10.1-53.82,9.31s-.51,3.82-1.04,9.22c-.51,5.7-1.13,14.13-1.45,24.43-.41,16.48,8.49,44.73,8.49,44.73l-1.23,47.86c4.45,32.38,9.51,70.43,11.79,97.7,1.15,14.22,5.28,27.18,4.35,33.35-1.66,11.68-8.8,22.96-17.18,28.75-17.29,11.87-37.68,7.94-37.68,34.53l119.74-.79s23.19-38.15,29.19-95.84c1.55-14.81,1.04-32.56-.21-49.43Z"/>
      <path class="cls-25" d="m1804.64,813.99c1.66-10.49,4.45-21.57,8.69-33.94l-111.67-.68s-.51,3.72-1.04,9.22l104.02,25.4Z"/>
      <path class="cls-19" d="m1718.84,1034.79c-1.66,11.67-8.58,18.83-16.97,24.61-13.67,9.42-31.36,15.11-38.3,30.11q0,.1.11.1c4.34.29,103.49,7.06,125.23,7.06,1.76,0,11.18-22.07,21.01-41.1,3.41-17.26,5.69-34.72,6.84-52.27h-98.43c1.04,14.03,1.45,25.3.51,31.49Z"/>
      <path class="cls-43" d="m1748.14,859.61c0-25.7-21.85-46.4-48.86-46.6q-.11,0-.11.1c-.51,20.8.53,41.39,3.11,61.99,1.13,9.12,2.58,19.42,4.15,30.4,0,.1.1.1.1.1,24.01-3.54,41.61-23.05,41.61-46Z"/>
      <path class="cls-36" d="m1801.96,1054.9c-22.15,0-39.85,14.71-45.65,35.01l22.25,3.25,22.78-3.44s.1,0,.1-.09c2.49-8.34,5.69-19.82,8.49-33.84q0-.09-.1-.09c-1.96-.39-6.21-.79-7.86-.79Z"/>
      <path class="cls-43" d="m1757.04,1089.62h-93.47s-.1,0-.1.09c-1.87,4.32-2.9,8.93-2.9,13.63,0,.3.3.59.62.59h134.13c.83,0,1.66-.48,1.87-1.27.73-2.06,2.28-6.47,4.15-12.85q0-.1-.11-.1h-44.19v-.09Z"/>
      <path class="cls-36" d="m1990.32,908.65c-17.59-38.26-53.82-76.5-57.95-117.71-.41-3.63-.73-7.26-1.04-10.88l-52.69-10.1-57.02,9.12s.72,4.22,2.38,11.28c2.17,9.13,6,23.25,12.01,39.53,4.96,13.74,24.63,34.43,24.63,34.43,0,0,9,35.22,17.29,49.82,14.79,26.2,31.04,54.93,42.02,76.61,6.52,12.95,23.8,26.88,23.8,26.88,0,0-5.68,27.86-11.58,36.1-12.01,16.78-31.15,17.66-21.64,42.57l99.37-36.58.1-100.05c-.21-.68-11.79-34.03-19.67-51Z"/>
      <path class="cls-25" d="m1937.86,814.68c.1,0,.1-.1.1-.1-2.9-7.74-4.86-15.69-5.58-23.64-.41-3.63-.73-7.15-1.04-10.78l-109.71-.98s.82,4.22,2.47,11.28l113.76,24.23Z"/>
      <path class="cls-19" d="m1925.32,1048.71c-9.41,13.15-24.01,24.13-25.25,40.31,0,.09.11.09.11.09l91.18-20.98c15.22-11.58,22.87-30.22,22.87-30.22,0,0,4.98-16.08,8.18-30.31-3-14.22-7.03-30.5-12.52-47.86,0-.1-.11-.1-.11-.1l-89.95,31.2c6.52,12.85,11.08,23.25,12.42,29.33,2.69,11.47-1.13,20.39-6.94,28.54Z"/>
      <path class="cls-43" d="m1907.52,871.37c0-25.7-22.04-46.59-49.16-46.59-7.77,0-15.31,1.77-22.25,5.1l-.1.1c5.47,15.21,12.11,30.02,19.76,44.34,6.21,11.47,13.86,25.21,22.15,39.73,0,0,.1.09.1,0,17.8-7.45,29.49-24.13,29.49-42.67Z"/>
      <path class="cls-36" d="m2022.42,1007.52c-24.42,5.79-40.16,28.64-36.43,52.38l25.46-1.96,17.29-13.33v-.1c-1.15-9.22-3-21.77-6.22-36.78q0-.2-.1-.2Z"/>
      <path class="cls-43" d="m2028.62,1044.5l-128.44,44.53s-.11,0-.11.09c-.3,4.81.53,9.61,2.17,14.22.11.2.41.39.62.3l127.11-43.65c.21-.09.41-.29.3-.48-.1-1.57-.51-6.77-1.55-14.91l-.11-.1Z"/>
      <path class="cls-43" d="m1918.91,406.35c-12.22-29.43-33.85-39.44-37.68-41.01-.3-.09-.51-.48-.41-.79l2.69-11.96c.1-.59-.32-1.18-.93-1.18h-10.14l-63.96.88-2.18,11.77c-.1.48-.51.79-.93.79h-11.69c-16.57,0-37.26,12.94-57.96,32.56-21.42,20.3-46.07,45.82-52.27,52.38-.83.89-2.28.89-3.11,0-7.34-7.54-39.53-40.9-65.62-71.89h-.21l-38.19,40.12c30.02,57.87,58.38,103.18,89.01,111.81,43.78,12.26,85.7-19.03,88.81-21.48.1-.09.21,0,.21.1l3.62,24.91,3.52,24.41.72.1h-.72c-5.18,11.38-13.77,24.82-23.5,40.31-5.8,9.31-15.12,32.95-15.12,32.95,0,0-15.01,19.12-20.39,31.2-14.59,32.85-25.25,71.5-22.87,116.62,0,.68.62,1.18,1.24,1.18h250.48c-7.97-85.04-8.9-151.84-33.23-201.97,3.93-.68,13.14-2.75,22.46-6.97,9.52-4.31,19.05-10.88,23.18-20.69,14.5-37.26-13.77-117.5-24.84-144.18Z"/>
      <path class="cls-12" d="m1792.74,364.86h12.52"/>
      <path class="cls-12" d="m1754.35,508.36c4.75-3.92,12.31-7.16,25.78-24.82"/>
      <path class="cls-28" d="m1754.35,508.55l4.96,33.45c0,.09.21.09.21,0l21.02-58.17c.1-.3-.32-.5-.53-.3-2.9,3.34-11.8,14.92-25.57,24.53,0,.09-.1.29-.1.48Z"/>
      <path class="cls-34" d="m1891.17,533.37h-133.11l3.52,24.52,124.83-.3,4.75-24.22Z"/>
      <path class="cls-34" d="m1726.19,669.81c17.69,0,33.11-11.58,37.05-27.96l8.79-35.7c.83-3.52-1.44-6.95-5.07-7.74-.51-.1-1.02-.2-1.55-.2h-27.32c-11.49,18.25-24.53,39.53-35.4,64.05,6.62,4.91,15.01,7.56,23.5,7.56Z"/>
      <path class="cls-12" d="m1902.86,473.94l-16.45,83.65s8.28,12.67,11.79,20.51"/>
      <path class="cls-8" d="m1819.44,209.78l-9.62,13.24"/>
      <path class="cls-8" d="m1821.63,220.97l-13.97-9.13"/>
      <path class="cls-10" d="m1551.48,374.56c-12.42-4.9-26.91-8.83-46.58-12.26"/>
      <path class="cls-10" d="m1558.73,360.84c-12.42-4.91-33.11-8.93-48.65-10.4"/>
      <path class="cls-10" d="m1576.32,354.96c-5.58-3.34-11.9-5.89-18.01-8.34"/>
      <path class="cls-12" d="m1729.72,1063.92l-16.99-14.33"/>
      <path class="cls-12" d="m1739.75,1048.91l-21.53-10.88"/>
      <path class="cls-12" d="m1955.96,1034.99l-23.38-1.57"/>
      <path class="cls-12" d="m1953.27,1017.53l-20.59,3.82"/>
      <path class="cls-28" d="m1886.42,557.59s7.24,10.6,11.79,20.51c0,0,12.01-2.16,22.36-6.88.1,0,.1-.09,0-.2-1.45-1.56-19.97-23.24-17.08-97,0-.39-.62-.48-.62-.09l-16.45,83.65Z"/>
      <path class="cls-26" d="m1810.24,341.61s10.86-4.31,18.63-7.85c.3-.2.62.29.41.48l-21.53,21.78.73-3.73,1.76-10.69Z"/>
    </g>
    <g>
      <path class="cls-36" d="m851.55,690.85h84.96l5.46-29.22,5.46-29.43h-84.97l-1.99,10.65-8.91,48Z"/>
      <path class="cls-28" d="m941.97,661.63l5.46-29.43h-84.97l-1.99,10.65,81.5,18.78Z"/>
      <path class="cls-36" d="m793.54,637.77h220.69c14.69,0,28.64-11.22,31.26-25.15l26.74-143.54c2.63-13.92-7.23-25.15-21.81-25.15h-220.8c-14.69,0-28.64,11.22-31.26,25.15l-26.65,143.64c-2.63,13.82,7.13,25.04,21.82,25.04Z"/>
      <path class="cls-19" d="m804.97,622.66h203.5c9.44,0,18.35-7.26,20.03-16.11l24.45-131.21c1.67-8.95-4.62-16.1-14.06-16.1h-203.5c-9.44,0-18.35,7.26-20.04,16.1l-24.44,131.21c-1.58,8.85,4.73,16.11,14.06,16.11Z"/>
      <path class="cls-12" d="m861.4,637.77h84.97"/>
    </g>
    <g>
      <path class="cls-11" d="m898.73,499.68l22.15,18.34"/>
      <path class="cls-11" d="m860.74,551.85l54.92,1.47"/>
      <path class="cls-17" d="m910.94,553.35c.17-.13,15.53-6.37,6.25-37.16l50.64-16.97s.7-.08,1.78-.08c4.08,0,13.7.55,15.04,5.55,2.06,7.74-11.08,16.18-11.21,16.27l.41,1.3c5,16.97,8.96,30.39,2.45,45.82-3.94,8.68-11.06,15.72-20.04,19.82h-.03s-45.29-34.54-45.29-34.54Z"/>
      <path class="cls-1" d="m963.5,539.3c-3.15.8-13.46-.84-15.15-9.22"/>
    </g>
    <g>
      <path class="cls-43" d="m372.36,416.6h61.79c7.97,0,14.47,6.16,14.47,13.71v147.35c0,7.56-6.5,13.71-14.47,13.71h-61.79c-7.97,0-14.47-6.16-14.47-13.71v-147.35c0-7.56,6.5-13.71,14.47-13.71Z"/>
      <path class="cls-19" d="m421.1,450.92h-35.45c-4.55,0-8.26-3.52-8.26-7.83s3.72-7.85,8.26-7.85h35.45c4.55,0,8.26,3.54,8.26,7.85s-3.72,7.83-8.26,7.83Z"/>
      <path class="cls-33" d="m387.49,452.71c-5.61,0-10.1-4.31-10.1-9.57s4.55-9.57,10.1-9.57,10.1,4.31,10.1,9.57c.06,5.27-4.49,9.57-10.1,9.57Z"/>
      <path class="cls-19" d="m385.65,495.98h35.45c4.55,0,8.26,3.52,8.26,7.83s-3.72,7.85-8.26,7.85h-35.45c-4.55,0-8.26-3.54-8.26-7.85s3.72-7.83,8.26-7.83Z"/>
      <path class="cls-41" d="m419.27,494.24c5.61,0,10.1,4.32,10.1,9.57s-4.55,9.57-10.1,9.57-10.1-4.31-10.1-9.57c-.06-5.25,4.49-9.57,10.1-9.57Z"/>
      <path class="cls-19" d="m385.65,556.72h35.45c4.55,0,8.26,3.54,8.26,7.85s-3.72,7.83-8.26,7.83h-35.45c-4.55,0-8.26-3.52-8.26-7.83s3.72-7.85,8.26-7.85Z"/>
      <path class="cls-41" d="m419.27,554.99c5.61,0,10.1,4.31,10.1,9.57s-4.55,9.57-10.1,9.57-10.1-4.31-10.1-9.57c-.06-5.27,4.49-9.57,10.1-9.57Z"/>
      <path class="cls-19" d="m385.65,465.64h35.45c4.55,0,8.26,3.54,8.26,7.85s-3.72,7.83-8.26,7.83h-35.45c-4.55,0-8.26-3.52-8.26-7.83s3.72-7.85,8.26-7.85Z"/>
      <path class="cls-33" d="m387.49,463.86c5.61,0,10.1,4.31,10.1,9.56s-4.56,9.57-10.1,9.57-10.1-4.31-10.1-9.57,4.55-9.56,10.1-9.56Z"/>
      <path class="cls-19" d="m385.65,526.38h35.45c4.55,0,8.26,3.52,8.26,7.83s-3.72,7.85-8.26,7.85h-35.45c-4.55,0-8.26-3.54-8.26-7.85s3.72-7.83,8.26-7.83Z"/>
      <path class="cls-33" d="m387.49,524.64c5.61,0,10.1,4.31,10.1,9.57s-4.56,9.57-10.1,9.57-10.1-4.31-10.1-9.57,4.55-9.57,10.1-9.57Z"/>
    </g>
    <g>
      <path class="cls-19" d="m663.74,885.27c7.19,0,13.12,5.51,13.12,12.32l-.11,32.27v133.49c0,6.82-5.82,12.34-13.01,12.34s-13.01-5.51-13.01-12.34v-165.76c-.11-6.81,5.71-12.32,13.01-12.32Z"/>
      <path class="cls-28" d="m663.74,885.27c-7.3,0-13.12,5.51-13.01,12.32v43.5l26.01-11.22.11-32.27c-.11-6.81-5.93-12.32-13.12-12.32Z"/>
      <path class="cls-32" d="m755,1092.23c-1.8-1.51-90.53-74.96-90.53-74.96h-1.58s-88.73,73.45-90.54,74.96c-2.21,1.2-4.64,7.11-1.16,10.92,2.75,3.21,7.62,4.01,11.32,1.7.21-.09,48.76-31.67,77.84-50.61,2-1.3,4.55-1.3,6.55,0,29.09,18.94,77.74,50.52,77.84,50.61,3.81,2.31,8.78,1.4,11.32-1.7,3.59-3.9,1.16-9.72-1.06-10.92Z"/>
      <path class="cls-33" d="m642.58,1012.45h42.21c2.53,0,4.55,1.91,4.55,4.31v21.45h-51.4v-21.45c.1-2.4,2.11-4.31,4.64-4.31Z"/>
      <path class="cls-33" d="m638.03,877.45h51.4v33.37c0,1.7-1.48,3.21-3.39,3.21h-44.72c-1.81,0-3.29-1.4-3.29-3.21v-33.37Z"/>
      <path class="cls-32" d="m587.7,857.61h151.97c10.14,0,18.3,7.82,18.3,17.34s-8.25,17.34-18.3,17.34h-151.97c-10.16,0-18.3-7.82-18.3-17.34s8.25-17.34,18.3-17.34Z"/>
    </g>
    <g>
      <path class="cls-38" d="m724.04,432.25c-.43-.09-.65-.5-.54-.8.11-2.24.43-10.33-.86-19.54-.95-6.99-5.02-13.88-8.65-20.67-13.03-23.79-60.26-27.64-82.28-6.17-9.72,9.52-15.81,17.51-15.81,46.88s-4.27,72.3-4.59,75.53c0,.1.11.21.21.21l72.34,1.93c.11,0,.21-.1.21-.21v-19.65c0-.09.11-.2.22-.2,1.38.41,8.33,2.23,16.24,2.23,6.19,0,12.72-1.22,17.95-5.07,13.89-10.12,7.79-35.84,6.73-39.88-.11-.31.11-.62.32-.72,1.49-.71,5.76-3.03,6.84-6.58,1.17-3.55-6.09-6.48-8.33-7.3Z"/>
      <path class="cls-38" d="m865.61,1037.14l4.7-14.17v-.1c0-1.01-.54-14.68-.32-16.2.86-7.19,2.03-15.09,3.41-23.99,2.35-15.19,5.35-33.11,8.13-54.37,3.95-30.58,9.29-70.58,9.61-73.31q0-.1-.1-.1l-101.18-7.9c-.11,0-.22.1-.11.2,1.49,9.93.64,18.94-1.38,28.76-5.13,25.82-17.52,56.91-12.72,122.52.95,12.15,2.99,33.31,7.37,59.84q0,.1.11.1l49.58,13.25h.11l32.8-34.53Z"/>
      <path class="cls-34" d="m893.39,1065.39c-16.89-11.64-21.8-28.04-23.08-42.32,0-.1-.11-.21-.21-.21l-31.53.81c-9.19.2-15.06,9.52-10.79,17.42l8.33,15.18c.32.62-.11,1.41-.86,1.41l-52.02.51q-.11,0-.11.1c1.7,9.91,3.52,20.45,5.87,31.79l75.32,5.78,65.61-5.88c-5.35-6.06-21.8-14.47-36.54-24.6Z"/>
      <path class="cls-37" d="m788.89,1090.2c1.17,5.67,3.52,15.49,4.17,18.13,0,.2.21.3.43.3l141.77.2c.32,0,.54-.2.54-.5,0-8.3-1.71-13.46-5.78-18.23h-.1l-141.04.1q0-.1,0,0Z"/>
      <path class="cls-26" d="m873.4,982.56c2.35-15.18,5.45-33.01,8.13-54.37,4.05-31.7,9.61-73.41,9.61-73.41l-101.5-7.9c1.6,9.93.65,19.04-1.27,28.85,58.12,27.85,41.45,63.5,85.04,106.82Z"/>
      <path class="cls-38" d="m984.09,972.54c-.86-1.52-1.71-3.44-2.67-5.37,0-.09-.11-.09-.11-.2-15.18-37.26-39.21-117.87-44.45-131.33-12.6-32.7-23.08-61.36-76.61-79.58-.32-.1-.75-.21-1.17-.21-.95,0-1.7.1-2.35.31-1.17.3-2.13,1.31-2.46,2.53l-22,94.87c-.43,2.03,1.17,4.06,3.41,4.06l4.49.09c1.29,0,2.46.72,3.1,1.83,16.67,30.78,7.7,64.9,53.42,142.66,1.82,3.14,10.37,18.02,25.43,39.08.75,1.01,1.92,1.52,3.21,1.41l43.81-3.84c.64-.1,1.17-.31,1.7-.62l23.51-15.69c1.17-.81,1.71-2.12,1.4-3.44-1.71-8-7.7-35.85-11.65-46.27.11,0,0-.1,0-.3Z"/>
      <path class="cls-34" d="m1069.35,1010.21c-13.57-2.63-32.8-2.84-45.08-4.26h-.11c-8.33-1.72-25.54-1.62-40.27-33.22-.22-.5-.86-.71-1.4-.39l-29.49,16.19c-6.94,3.85-7.37,13.16-.75,17.52l17.21,11.24c.64.41.54,1.22-.11,1.52l-45.3,23.59c-.53.3-.64.92-.32,1.32,7.16,9.81,15.49,21.06,25.32,32.8.33.31.76.51,1.17.31l69.78-25.83c.1,0,.1-.1.21-.1l57.16-37.16v-.3c-2.35-1.62-5.02-2.63-8.02-3.24Z"/>
      <path class="cls-37" d="m1090.62,1027.23c-.97-1.73-5.56-9.12-13.14-13.78l-127.79,63.59s-.11.1,0,.1c3.84,4.65,8.02,9.31,12.4,14.28.1.09.21.09.32.09,5.76-2.83,128.11-63.89,128.11-63.89.11,0,.21-.3.11-.39Z"/>
      <path class="cls-37" d="m859.62,755.96s-4.92-1.62-6.73-2.33c-65.93-21.47-133.12-40.8-133.12-40.8h-136.66c-1.29,1.93-5.33,12.76-10.57,27.64-1.92,5.47-4.06,11.45-6.21,17.72-16.99,49.12,21.37,99.53,75.86,99.53h200.02l17.41-101.76Z"/>
      <path class="cls-28" d="m852.35,753.84c.22-.1.11-.3,0-.3-7.68-2.54-15.27-4.96-22.86-7.4-23.08-7.28-45.51-14.17-63.69-19.63,0,0,3.75,11.95,17.52,21.56,3.21,2.23,7.05,4.45,11.54,6.27,24.79,10.33,53.53.92,57.48-.5Z"/>
      <path class="cls-38" d="m1019.89,720.32c-2.25-5.07-17.73-13.77-45.08-28.85-22.65-12.46-98.83-21.06-100.98-21.36h-.11l-4.27,1.52c-.11,0-.11.09-.11.09l-12.29,67.44c0,.1,0,.2.11.2l4.6,2.23h.1c.54-.09,4.7-.8,6.84-1.21,13.25-2.44,25.32-5.17,34.62-7.7h.21c20.62,13.98,37.72,8.51,48.08,16.01,20.08,15.08,30.02,21.45,33.87,18.02,4.05-4.06-3.54-11.45-17.95-26.73-.43-.51.11-1.11.75-.92,27.78,13.46,39.96,13.37,41.67,3.25,0-.31.32-.51.54-.62,5.22-1.52,9.08-5.16,5.56-11.34-.22-.41-.11-.81.32-1.01,4.91-2.53,4.59-6.78,3.52-9.01Z"/>
      <path class="cls-31" d="m755.77,742.9c20.19,9.61,66.99,5.37,105.99-1.32.1,0,.1-.09.1-.2l11.86-71.08c0-.1-.1-.2-.21-.2-36.43-2.84-68.48-2.63-73.72-2.54-.43,0-.86-.3-.97-.71-2.89-8.5-32.48-95.18-51.7-118.97-19.45-24.4-59.94-28.36-62.94-28.66-.11,0-.21-.1-.21-.2v-14.59c0-.09-.11-.2-.22-.2h-72.44c-.11,0-.22.1-.22.2v13.98c0,.1-.1.21-.21.21-25.21,2.53-41.56,18.22-50.75,30.67-30.67,40.5-66.35,124.34-55.34,159.27,5.56,17.52,21.15,25.62,36.1,29.26,15.71,3.85,30.03,2.84,31.41,2.74.11,0,.11-.1.22-.1l10.57-26.82c0-.1.11-.1.22-.1l138.46.21q.11,0,.22.09c.75,1.22,9.51,17.42,33.76,29.06Z"/>
      <path class="cls-29" d="m837.83,733.59c5.54,0,10.05-4.27,10.05-9.52s-4.51-9.52-10.05-9.52-10.05,4.27-10.05,9.52,4.51,9.52,10.05,9.52Z"/>
      <path class="cls-26" d="m903.1,732.78c-9.29,2.42-20.94,5.06-34.19,7.6,0,0-.1,0,0-.1l24.68-15.9c.22-.1.54-.1.65.1,4.05,5.06,7.79,7.49,8.86,8.09.11,0,.11.1,0,.21Z"/>
      <path class="cls-28" d="m541.12,737.83c16.99,4.15,31.41,2.63,31.41,2.63l10.68-27.03v-.09l-11.22-59.14c-.11-.3-.54-.3-.54,0-.95,7.09-4.91,34.33-10.35,49.81-6.21,17.12-19.13,32.61-19.98,33.82q-.11,0,0,0Z"/>
      <path class="cls-28" d="m721.79,713.54c-.75-1.22-6.51-11.24-20.08-50.02-.21-.51-.97-.41-.97.1l-5.45,50.02h26.4c.1,0,.21-.1.1-.1Z"/>
      <path class="cls-32" d="m735.04,366.95c-16.78-10.73-31.53,1.93-35.26,5.47-.54.5-1.4.6-2.03.3-21.05-10.33-53.85-9.82-69.56,5.67-9.72,9.51-17.41,22.78-20.19,52.04-4.7,47.6-71.8,56.8-72.75,122.82,0,.81.64,1.43,1.49,1.43h117.85c.75,0,1.49-.41,1.92-1.11,18.7-36.36,7.79-80,5.87-86.77-.11-.62-.53-1.02-1.06-1.32-5.02-2.63-30.99-17.21-22.11-34.73,10.03-19.95,33-3.84,37.81-.09.65.5,1.4.6,2.14.41,5.13-1.52,25.75-7.9,41.56-17.93,22.11-13.66,27.89-37.35,14.32-46.17Z"/>
      <path class="cls-32" d="m615.9,383.55c15.7,0,28.43-12.06,28.43-26.93s-12.73-26.94-28.43-26.94-28.42,12.06-28.42,26.94,12.73,26.93,28.42,26.93Z"/>
      <path class="cls-18" d="m708.75,433.36c1.77,0,3.21-1.35,3.21-3.04s-1.44-3.03-3.21-3.03-3.21,1.35-3.21,3.03,1.44,3.04,3.21,3.04Z"/>
      <path class="cls-24" d="m671.58,485.61l12.4,23.8c0,.1.1,0,.1,0v-19.54c0-.1-.1-.2-.21-.3-1.06-.41-6.41-2.33-10.89-5.07-.86-.5-1.82.31-1.4,1.11Z"/>
      <path class="cls-9" d="m885.37,1057.3s2.35-33.11,14.95-28.76c14.86,4.96-14.95,28.76-14.95,28.76Z"/>
      <path class="cls-9" d="m885.37,1057.3c14.86-1.02,26.72-2.74,26.72-2.74"/>
      <path class="cls-5" d="m691.23,714.54l7.27,18.94c5.98,15.8,19.87,27.85,37.08,32.3l115.6,29.97"/>
      <path class="cls-9" d="m1014.87,1003.22s-12.62-32.09.75-32.8c15.59-.92-.75,32.8-.75,32.8Z"/>
      <path class="cls-9" d="m1014.87,1003.22c13.13-6.38,22.21-13.06,22.21-13.06"/>
      <path class="cls-12" d="m721.9,713.64c-11.86-25.62-15.06-35.64-20.19-50.12"/>
      <path class="cls-12" d="m583.22,713.54l-11.65-61.15"/>
      <path class="cls-10" d="m967.85,739.56l-7.16-6.08"/>
      <path class="cls-10" d="m1010.06,742.19l-43.7-21.68"/>
      <path class="cls-10" d="m1016.05,729.93l-43.38-24.4"/>
      <path class="cls-12" d="m790.49,857.82l51.72-.1"/>
      <path class="cls-10" d="m842.21,857.82c13.03,23.99,12.29,50.94,30.99,97.71l3.3,7.7"/>
      <path class="cls-9" d="m836.11,1056.28l22.33,33.82"/>
      <path class="cls-9" d="m969.57,1017.3l49.15,25.41"/>
      <path class="cls-12" d="m658.32,442.99l9.09,4.86"/>
      <path class="cls-12" d="m709.93,455.94c2.68,4.15,6.3,4.36,8.98,3.96"/>
      <path class="cls-12" d="m684.29,489.67s-7.7-2.84-11.43-5.17"/>
      <path class="cls-12" d="m697.96,372.83c6.32,3.03,10.37,6.58,10.37,6.58"/>
      <path class="cls-12" d="m692.51,520.35c-4.59-1.11-8.44-1.22-8.44-1.22"/>
    </g>
    <g>
      <path class="cls-13" d="m179.71,137.21l69.13-65.53c2.18-2.07,5.71-2.07,7.89,0l69.13,65.53"/>
      <path class="cls-19" d="m149.49,128.86h206.62c4.64,0,8.46,3.6,8.46,8.02v98.83c0,4.41-3.81,8.02-8.46,8.02h-206.62c-4.66,0-8.46-3.6-8.46-8.02v-98.83c0-4.41,3.8-8.02,8.46-8.02Z"/>
    </g>
    <g>
      <path class="cls-37" d="m1505.95,1093.47l-45.28-72.34v-43.38h4.62c4.24-.47,7.6-3.67,7.6-7.57v-.47c0-3.9-3.36-7.09-7.48-7.09h-37.8c-4.12,0-7.48,3.18-7.48,7.09v.47c0,3.9,3.36,7.1,7.35,7.57h4.74v43.38l-45.15,72.34c-2.38,3.9-1,8.63,2.87,11,1.24.71,2.74,1.06,4.23,1.06h104.28c4.74,0,8.49-3.67,8.49-8.04.12-1.41-.25-2.83-1-4.02Z"/>
      <path class="cls-32" d="m1505.7,1093.47l-20.7-33.33c-52.39,41.61-35.55-19.38-72.97-6.61l-24.95,39.95c-2.38,3.9-1,8.63,2.87,11,1.24.71,2.74,1.06,4.23,1.06h104.28c4.74,0,8.49-3.67,8.49-8.04,0-1.41-.37-2.83-1.24-4.02Z"/>
    </g>
    <g>
      <path class="cls-6" d="m363.46,793.17v28.25"/>
      <path class="cls-6" d="m363.46,901.58v28.25"/>
      <path class="cls-6" d="m431.79,861.5h-28.25"/>
      <path class="cls-6" d="m323.38,861.5h-28.25"/>
      <path class="cls-6" d="m315.2,813.24l19.89,19.89"/>
      <path class="cls-6" d="m391.88,889.92l19.89,19.89"/>
      <path class="cls-6" d="m411.77,813.24l-19.89,19.89"/>
      <path class="cls-6" d="m335.08,889.92l-19.89,19.89"/>
    </g>
    <g>
      <path class="cls-6" d="m800.46,131.17v28.25"/>
      <path class="cls-6" d="m800.46,239.58v28.25"/>
      <path class="cls-6" d="m868.79,199.5h-28.25"/>
      <path class="cls-6" d="m760.38,199.5h-28.25"/>
      <path class="cls-6" d="m752.2,151.24l19.89,19.89"/>
      <path class="cls-6" d="m828.88,227.92l19.89,19.89"/>
      <path class="cls-6" d="m848.77,151.24l-19.89,19.89"/>
      <path class="cls-6" d="m772.08,227.92l-19.89,19.89"/>
    </g>
    <g>
      <path class="cls-6" d="m2043.46,131.17v28.25"/>
      <path class="cls-6" d="m2043.46,239.58v28.25"/>
      <path class="cls-6" d="m2111.79,199.5h-28.25"/>
      <path class="cls-6" d="m2003.38,199.5h-28.25"/>
      <path class="cls-6" d="m1995.2,151.24l19.89,19.89"/>
      <path class="cls-6" d="m2071.88,227.92l19.89,19.89"/>
      <path class="cls-6" d="m2091.77,151.24l-19.89,19.89"/>
      <path class="cls-6" d="m2015.08,227.92l-19.89,19.89"/>
    </g>
    <path class="cls-2" d="m2358.08,635.52c3.35-3.36,6.72-6.7,10.07-10.07,15.23-15.29,23.92-33.59,23.75-55.48-.05-32.4-21.96-60.71-53.37-68.99-26.82-6.98-50.71-.81-70.88,18.4-3.69,3.52-6.98,7.47-11.05,11.85-4.07-4.38-7.36-8.33-11.05-11.85-20.17-19.22-44.06-25.39-70.88-18.4-31.42,8.28-53.32,36.59-53.37,68.99-.16,21.89,8.52,40.19,23.75,55.48,26.69,26.82,53.56,53.45,80.33,80.19l31.27,31.29c9.17-9.21,18.08-18.19,27.01-27.12m-33.83-38.22h142.07m-71.04,70.41v-140.81"/>
    <g>
      <path class="cls-19" d="m141.99,122.29h213.06c8.67,0,15.64,7.01,15.64,15.68v162.39c0,8.67-7.02,15.63-15.64,15.63h-213.06c-8.67,0-15.69-7.01-15.69-15.63v-162.39c.05-8.67,7.02-15.68,15.69-15.68Z"/>
      <path class="cls-33" d="m160.98,142.36h67.34c3.97,0,7.23,3.25,7.23,7.23v.31c0,3.97-3.25,7.23-7.23,7.23h-67.34c-3.97,0-7.23-3.25-7.23-7.23v-.31c0-3.97,3.25-7.23,7.23-7.23Z"/>
      <path class="cls-33" d="m327.24,142.36h43.45v14.76h-43.45c-3.97,0-7.23-3.25-7.23-7.23v-.31c0-3.97,3.25-7.23,7.23-7.23Z"/>
      <path class="cls-32" d="m217.48,211.25h22.5c3.97,0,7.23,3.25,7.23,7.22v.31c0,3.97-3.25,7.23-7.23,7.23h-22.5c-3.97,0-7.22-3.25-7.22-7.23v-.31c0-4.02,3.25-7.22,7.22-7.22Z"/>
      <path class="cls-43" d="m195.3,280.14h22.5c3.97,0,7.22,3.25,7.22,7.23v.31c0,3.97-3.25,7.23-7.22,7.23h-22.5c-3.97,0-7.23-3.25-7.23-7.23v-.31c0-4.02,3.25-7.23,7.23-7.23Z"/>
      <path class="cls-43" d="m244.42,280.14h43.6c3.97,0,7.23,3.25,7.23,7.23v.31c0,3.97-3.25,7.23-7.23,7.23h-43.6c-3.97,0-7.23-3.25-7.23-7.23v-.31c0-4.02,3.2-7.23,7.23-7.23Z"/>
      <path class="cls-34" d="m217.48,245.67h76.84c3.97,0,7.22,3.25,7.22,7.23v.31c0,3.97-3.25,7.23-7.22,7.23h-76.84c-3.97,0-7.22-3.25-7.22-7.23v-.31c0-3.97,3.25-7.23,7.22-7.23Z"/>
      <path class="cls-37" d="m160.98,176.78h67.34c3.97,0,7.23,3.25,7.23,7.23v.31c0,3.97-3.25,7.23-7.23,7.23h-67.34c-3.97,0-7.23-3.25-7.23-7.23v-.31c0-3.97,3.25-7.23,7.23-7.23Z"/>
      <path class="cls-37" d="m263.92,176.68h34.11c3.97,0,7.23,3.25,7.23,7.23v.31c0,3.97-3.25,7.22-7.23,7.22h-34.11c-3.97,0-7.22-3.25-7.22-7.22v-.31c0-4.02,3.25-7.23,7.22-7.23Z"/>
      <path class="cls-19" d="m141.99,122.29h29.21v193.71h-29.21c-8.67,0-15.69-7.01-15.69-15.63v-162.39c0-8.67,7.02-15.68,15.69-15.68Z"/>
      <path class="cls-21" d="m141.99,122.29h29.21v193.71h-29.21c-8.67,0-15.69-7.01-15.69-15.63v-162.39c0-8.67,7.02-15.68,15.69-15.68Z"/>
      <path class="cls-15" d="m370.69,166.67h-198.97"/>
      <path class="cls-15" d="m370.69,201.5h-198.97"/>
      <path class="cls-15" d="m370.69,236.85h-198.97"/>
      <path class="cls-15" d="m370.69,270.08h-198.97"/>
      <path class="cls-14" d="m171.2,122.29v193.71"/>
      <path class="cls-7" d="m143.75,149.75h10.01"/>
      <path class="cls-7" d="m143.75,184.06h10.01"/>
      <path class="cls-7" d="m143.75,218.37h10.01"/>
      <path class="cls-7" d="m143.75,253.2h10.01"/>
      <path class="cls-7" d="m143.75,287.52h10.01"/>
    </g>
    <g>
      <path class="cls-43" d="m1112.5,595.76h18.68v68.51c0,1.19-.23,2.37-.68,3.47-.46,1.1-1.12,2.1-1.96,2.94-.84.84-1.84,1.51-2.94,1.96-1.1.46-2.28.69-3.47.69h-.56c-1.19,0-2.37-.23-3.47-.69-1.1-.45-2.1-1.12-2.94-1.96-.84-.84-1.51-1.84-1.96-2.94-.45-1.1-.69-2.28-.68-3.47v-68.51Z"/>
      <path class="cls-20" d="m1125.74,595.76v68.51c0,1.98-.63,3.91-1.83,5.48-1.2,1.58-2.88,2.71-4.79,3.23.8.22,1.62.34,2.44.35h.56c1.19,0,2.37-.23,3.47-.69,1.1-.45,2.1-1.12,2.94-1.96.84-.84,1.51-1.84,1.96-2.94.45-1.1.68-2.28.68-3.47v-68.51h-5.44Z"/>
      <path class="cls-34" d="m1112.5,648.94h18.68v15.33c0,1.19-.23,2.37-.68,3.47-.46,1.1-1.12,2.1-1.96,2.94-.84.84-1.84,1.51-2.94,1.96-1.1.46-2.28.69-3.47.69h-.56c-1.19,0-2.37-.23-3.47-.69-1.1-.45-2.1-1.12-2.94-1.96-.84-.84-1.51-1.84-1.96-2.94-.45-1.1-.69-2.28-.68-3.47v-15.33Z"/>
      <path class="cls-43" d="m1146.23,595.76h18.68v68.51c0,1.19-.23,2.37-.68,3.47-.46,1.1-1.12,2.1-1.97,2.94-.84.84-1.84,1.51-2.94,1.96-1.1.46-2.28.69-3.47.69h-.56c-1.19,0-2.37-.23-3.47-.69-1.1-.45-2.1-1.12-2.94-1.96s-1.51-1.84-1.96-2.94c-.45-1.1-.68-2.28-.68-3.47v-68.51Z"/>
      <path class="cls-20" d="m1159.47,595.76v68.51c0,1.98-.63,3.91-1.83,5.48-1.2,1.58-2.88,2.71-4.79,3.23.8.22,1.62.34,2.44.35h.56c1.19,0,2.37-.23,3.47-.69,1.1-.45,2.1-1.12,2.94-1.96.85-.84,1.51-1.84,1.97-2.94.45-1.1.68-2.28.68-3.47v-68.51h-5.44Z"/>
      <path class="cls-31" d="m1146.23,625.24h18.68v39.03c0,1.19-.23,2.37-.68,3.47-.46,1.1-1.12,2.1-1.97,2.94-.84.84-1.84,1.51-2.94,1.96-1.1.46-2.28.69-3.47.69h-.56c-1.19,0-2.37-.23-3.47-.69-1.1-.45-2.1-1.12-2.94-1.96s-1.51-1.84-1.96-2.94c-.45-1.1-.68-2.28-.68-3.47v-39.03Z"/>
      <path class="cls-43" d="m1179.96,595.76h18.68v68.51c0,1.19-.23,2.37-.68,3.47-.46,1.1-1.12,2.1-1.96,2.94-.84.84-1.84,1.51-2.94,1.96-1.1.46-2.28.69-3.47.69h-.56c-1.19,0-2.37-.23-3.47-.69-1.1-.45-2.1-1.12-2.94-1.96-.85-.84-1.51-1.84-1.97-2.94-.45-1.1-.68-2.28-.68-3.47v-68.51Z"/>
      <path class="cls-20" d="m1193.21,595.76v68.51c0,1.98-.63,3.91-1.83,5.48-1.2,1.58-2.88,2.71-4.79,3.23.8.22,1.62.34,2.44.35h.56c1.19,0,2.37-.23,3.47-.69,1.1-.45,2.1-1.12,2.94-1.96.84-.84,1.51-1.84,1.96-2.94.45-1.1.68-2.28.68-3.47v-68.51h-5.43Z"/>
      <path class="cls-19" d="m1179.96,636.67h18.68v27.6c0,1.19-.23,2.37-.68,3.47-.46,1.1-1.12,2.1-1.96,2.94-.84.84-1.84,1.51-2.94,1.96-1.1.46-2.28.69-3.47.69h-.56c-1.19,0-2.37-.23-3.47-.69-1.1-.45-2.1-1.12-2.94-1.96-.85-.84-1.51-1.84-1.97-2.94-.45-1.1-.68-2.28-.68-3.47v-27.6Z"/>
      <path class="cls-3" d="m1216.69,686.99v-60.5c.01-1.48-.26-2.94-.82-4.31-.55-1.37-1.37-2.61-2.4-3.66-1.04-1.05-2.27-1.88-3.64-2.45-1.36-.57-2.82-.86-4.3-.87h-100.08c-1.48,0-2.93.31-4.29.88-1.36.57-2.59,1.41-3.63,2.45-1.03,1.05-1.85,2.29-2.41,3.66-.55,1.36-.84,2.83-.83,4.3h0v60.5"/>
      <path class="cls-11" d="m1110.41,595.76h23"/>
      <path class="cls-11" d="m1144.21,595.76h22.93"/>
      <path class="cls-11" d="m1177.94,595.76h23"/>
    </g>
  </g>
</svg>